<svg xmlns="http://www.w3.org/2000/svg" viewBox="0 0 64 64" fill="none">
  <defs>
    <linearGradient id="bg" x1="10" y1="8" x2="56" y2="56" gradientUnits="userSpaceOnUse">
      <stop offset="0" stop-color="#34D399"/>
      <stop offset="0.55" stop-color="#3B82F6"/>
      <stop offset="1" stop-color="#8B5CF6"/>
    </linearGradient>
    <linearGradient id="fg" x1="16" y1="14" x2="48" y2="50" gradientUnits="userSpaceOnUse">
      <stop offset="0" stop-color="#FFFFFF"/>
      <stop offset="1" stop-color="#E5E7EB"/>
    </linearGradient>
  </defs>
  <path d="M32 6.5L49.5 14.5V31.8C49.5 42.8 42.3 52.6 32 57.5C21.7 52.6 14.5 42.8 14.5 31.8V14.5L32 6.5Z" fill="url(#bg)" fill-opacity=".18" stroke="url(#bg)" stroke-width="2.2"/>
  <path d="M25.5 27.6V23.5C25.5 19.9 28.4 17 32 17C35.6 17 38.5 19.9 38.5 23.5V27.6" stroke="url(#fg)" stroke-width="2.4" stroke-linecap="round"/>
  <rect x="20.8" y="27.5" width="22.4" height="18.2" rx="5.2" fill="url(#fg)" stroke="url(#bg)" stroke-width="1.8"/>
  <circle cx="32" cy="36.6" r="2.6" fill="#0F172A"/>
  <path d="M32 39.2V42.2" stroke="#0F172A" stroke-width="2" stroke-linecap="round"/>
  <path d="M26.2 14.7L18.8 18.2V31.7C18.8 40.3 24.1 47.9 32 51.6C39.9 47.9 45.2 40.3 45.2 31.7V18.2L37.8 14.7" stroke="rgba(255,255,255,0.42)" stroke-width="1.2" stroke-linecap="round"/>
</svg>
